<svg width="371" height="264" viewBox="0 0 371 264" fill="none" xmlns="http://www.w3.org/2000/svg">
<g opacity="0.4">
<mask id="path-1-inside-1_459_9595" fill="white">
<path fill-rule="evenodd" clip-rule="evenodd" d="M123.344 0.463867C109.127 0.463867 97.6026 11.9885 97.6026 26.2049V29.4921C97.2582 31.7937 96.6291 34.05 95.7257 36.2093C94.2818 39.6608 92.1653 42.7969 89.4973 45.4385C86.8292 48.0802 83.6617 50.1757 80.1757 51.6053C79.123 52.0371 78.0474 52.4055 76.955 52.7095H25.7415C11.5251 52.7095 0.000488281 64.2342 0.000488281 78.4505V238.259C0.000488281 252.476 11.5251 264 25.7415 264H185.55C199.767 264 211.291 252.476 211.291 238.259V228.152C212.131 222.545 214.649 217.279 218.569 213.061C222.935 208.362 228.754 205.271 235.075 204.247H344.287C358.504 204.247 370.028 192.722 370.028 178.506V26.2049C370.028 11.9885 358.504 0.463867 344.287 0.463867H123.344Z"/>
</mask>
<path fill-rule="evenodd" clip-rule="evenodd" d="M123.344 0.463867C109.127 0.463867 97.6026 11.9885 97.6026 26.2049V29.4921C97.2582 31.7937 96.6291 34.05 95.7257 36.2093C94.2818 39.6608 92.1653 42.7969 89.4973 45.4385C86.8292 48.0802 83.6617 50.1757 80.1757 51.6053C79.123 52.0371 78.0474 52.4055 76.955 52.7095H25.7415C11.5251 52.7095 0.000488281 64.2342 0.000488281 78.4505V238.259C0.000488281 252.476 11.5251 264 25.7415 264H185.55C199.767 264 211.291 252.476 211.291 238.259V228.152C212.131 222.545 214.649 217.279 218.569 213.061C222.935 208.362 228.754 205.271 235.075 204.247H344.287C358.504 204.247 370.028 192.722 370.028 178.506V26.2049C370.028 11.9885 358.504 0.463867 344.287 0.463867H123.344Z" fill="#8BCBB7"/>
<path d="M97.6026 29.4921L98.6633 29.6508L98.6751 29.5719V29.4921H97.6026ZM95.7257 36.2093L96.7152 36.6232L95.7257 36.2093ZM80.1757 51.6053L79.7687 50.613L80.1757 51.6053ZM76.955 52.7095V53.7821H77.1014L77.2425 53.7428L76.955 52.7095ZM211.291 228.152L210.231 227.993L210.219 228.072V228.152H211.291ZM218.569 213.061L217.783 212.33L218.569 213.061ZM235.075 204.247V203.174H234.989L234.903 203.188L235.075 204.247ZM98.6751 26.2049C98.6751 12.5808 109.72 1.53641 123.344 1.53641V-0.608675C108.535 -0.608675 96.53 11.3961 96.53 26.2049H98.6751ZM98.6751 29.4921V26.2049H96.53V29.4921H98.6751ZM96.7152 36.6232C97.6528 34.382 98.3058 32.04 98.6633 29.6508L96.5419 29.3334C96.2105 31.5473 95.6054 33.7179 94.7363 35.7953L96.7152 36.6232ZM90.2519 46.2007C93.0201 43.4599 95.2165 40.2056 96.7152 36.6232L94.7363 35.7953C93.3471 39.1159 91.3106 42.1338 88.7426 44.6764L90.2519 46.2007ZM80.5827 52.5977C84.198 51.1149 87.4837 48.9414 90.2519 46.2007L88.7426 44.6764C86.1746 47.2189 83.1254 49.2364 79.7687 50.613L80.5827 52.5977ZM77.2425 53.7428C78.3755 53.4275 79.4909 53.0454 80.5827 52.5977L79.7687 50.613C78.7551 51.0287 77.7194 51.3835 76.6674 51.6763L77.2425 53.7428ZM25.7415 53.7821H76.955V51.637H25.7415V53.7821ZM1.07303 78.4505C1.07303 64.8265 12.1175 53.7821 25.7415 53.7821V51.637C10.9328 51.637 -1.07205 63.6418 -1.07205 78.4505H1.07303ZM1.07303 238.259V78.4505H-1.07205V238.259H1.07303ZM25.7415 262.928C12.1175 262.928 1.07303 251.883 1.07303 238.259H-1.07205C-1.07205 253.068 10.9328 265.073 25.7415 265.073V262.928ZM185.55 262.928H25.7415V265.073H185.55V262.928ZM210.219 238.259C210.219 251.883 199.174 262.928 185.55 262.928V265.073C200.359 265.073 212.364 253.068 212.364 238.259H210.219ZM210.219 228.152V238.259H212.364V228.152H210.219ZM217.783 212.33C213.716 216.707 211.102 222.172 210.231 227.993L212.352 228.311C213.159 222.917 215.582 217.85 219.354 213.791L217.783 212.33ZM234.903 203.188C228.349 204.25 222.313 207.456 217.783 212.33L219.354 213.791C223.557 209.269 229.159 206.292 235.246 205.306L234.903 203.188ZM344.287 203.174H235.075V205.319H344.287V203.174ZM368.956 178.506C368.956 192.13 357.911 203.174 344.287 203.174V205.319C359.096 205.319 371.101 193.315 371.101 178.506H368.956ZM368.956 26.2049V178.506H371.101V26.2049H368.956ZM344.287 1.53641C357.911 1.53641 368.956 12.5809 368.956 26.2049H371.101C371.101 11.3962 359.096 -0.608675 344.287 -0.608675V1.53641ZM123.344 1.53641H344.287V-0.608675H123.344V1.53641Z" fill="#007367" mask="url(#path-1-inside-1_459_9595)"/>
</g>
</svg>
