<svg width="32" height="32" viewBox="0 0 32 32" fill="none" xmlns="http://www.w3.org/2000/svg">
<g clip-path="url(#clip0_4280_25342)">
<path d="M32 16.0011C32 7.16445 24.8367 0.00109863 16 0.00109863C7.16335 0.00109863 0 7.16445 0 16.0011C0 24.8377 7.16335 32.0011 16 32.0011C24.8367 32.0011 32 24.8377 32 16.0011Z" fill="#3D83D9"/>
<path d="M12.0859 12.0952H8.38281V22.6809H12.0859V12.0952Z" fill="white"/>
<path d="M10.2348 6.80347C9.07398 6.80347 8.16714 7.87073 8.42783 9.06945C8.57934 9.76684 9.14974 10.3283 9.84936 10.4687C11.0436 10.7093 12.0864 9.80472 12.0864 8.65502C12.0864 7.63455 11.2597 6.80347 10.2348 6.80347Z" fill="white"/>
<path d="M24.2608 15.3482C24.0112 13.3541 23.013 12.0974 20.317 12.0974C18.4031 12.0974 17.6411 12.396 17.2021 13.2315V12.0974H14.2031V22.6831H17.289V17.1418C17.289 15.7582 17.552 14.7132 19.2609 14.7132C20.9699 14.7132 21.0813 15.9988 21.0813 17.231V22.6831H24.2585C24.2585 22.6831 24.3165 15.8161 24.2585 15.3504L24.2608 15.3482Z" fill="white"/>
</g>
<defs>
<clipPath id="clip0_4280_25342">
<rect width="32" height="32" fill="white" transform="translate(0 0.00109863)"/>
</clipPath>
</defs>
</svg>
