<svg width="32" height="32" viewBox="0 0 32 32" fill="none" xmlns="http://www.w3.org/2000/svg">
<g clip-path="url(#clip0_4280_25324)">
<path d="M16 0C7.16328 0 0 7.16328 0 16.0022C0 24.8412 7.16328 32.0022 16 32.0022C24.8367 32.0022 32 24.8389 32 16.0022C32 7.16551 24.8345 0 16 0Z" fill="url(#paint0_linear_4280_25324)"/>
<g clip-path="url(#clip1_4280_25324)">
<path d="M20.6552 8.06775H11.3448C8.94569 8.06775 7 10.0062 7 12.3955V21.6714C7 24.0616 8.94569 26 11.3448 26H20.6552C23.0543 26 25 24.0616 25 21.6714V12.3955C25 10.0054 23.0543 8.06689 20.6552 8.06689V8.06775ZM23.4481 21.3625C23.4481 23.0695 22.0577 24.4548 20.3443 24.4548H11.6548C9.94142 24.4548 8.55102 23.0695 8.55102 21.3625V12.7053C8.55102 10.9982 9.94142 9.61302 11.6548 9.61302H20.3443C22.0577 9.61302 23.4481 10.9982 23.4481 12.7053V21.3625Z" fill="#A03095"/>
<path d="M15.9986 12.3955C12.4051 12.3955 11.3438 15.9661 11.3438 15.9661V17.0339C11.3438 19.5935 13.4293 21.6714 15.9986 21.6714C18.5678 21.6714 20.6534 19.5935 20.6534 17.0339V15.9661C20.6534 15.9661 19.5592 12.3955 15.9986 12.3955ZM15.9986 20.1253C14.2886 20.1253 12.8948 18.7366 12.8948 17.033C12.8948 15.3294 14.2886 13.9408 15.9986 13.9408C17.7085 13.9408 19.1023 15.3294 19.1023 17.033C19.1023 18.7366 17.7085 20.1253 15.9986 20.1253Z" fill="#A03095"/>
<path d="M21.8932 11.807C21.8932 12.3181 21.4752 12.7345 20.9622 12.7345C20.4492 12.7345 20.0312 12.3181 20.0312 11.807V11.0189H21.8932V11.807Z" fill="#A03095"/>
<path d="M20.6552 7H11.3448C8.94569 7 7 8.93846 7 11.3286V20.6045C7 22.9947 8.94569 24.9331 11.3448 24.9331H20.6552C23.0543 24.9331 25 22.9947 25 20.6045V11.3286C25 8.93846 23.0543 7 20.6552 7ZM23.4481 20.2948C23.4481 22.0018 22.0577 23.387 20.3443 23.387H11.6548C9.94142 23.387 8.55102 22.0018 8.55102 20.2948V11.6375C8.55102 9.93049 9.94142 8.54526 11.6548 8.54526H20.3443C22.0577 8.54526 23.4481 9.93049 23.4481 11.6375V20.2948Z" fill="white"/>
<path d="M15.9986 11.3286C13.4293 11.3286 11.3438 13.4065 11.3438 15.9661C11.3438 18.5258 13.4293 20.6036 15.9986 20.6036C18.5678 20.6036 20.6534 18.5258 20.6534 15.9661C20.6534 13.4065 18.5678 11.3286 15.9986 11.3286ZM15.9986 19.0584C14.2886 19.0584 12.8948 17.6697 12.8948 15.9661C12.8948 14.2625 14.2886 12.8739 15.9986 12.8739C17.7085 12.8739 19.1023 14.2625 19.1023 15.9661C19.1023 17.6697 17.7085 19.0584 15.9986 19.0584Z" fill="white"/>
<path d="M20.9622 11.9473C21.4764 11.9473 21.8932 11.532 21.8932 11.0198C21.8932 10.5075 21.4764 10.0923 20.9622 10.0923C20.4481 10.0923 20.0312 10.5075 20.0312 11.0198C20.0312 11.532 20.4481 11.9473 20.9622 11.9473Z" fill="white"/>
</g>
</g>
<defs>
<linearGradient id="paint0_linear_4280_25324" x1="26.4968" y1="28.0768" x2="5.5032" y2="3.92545" gradientUnits="userSpaceOnUse">
<stop stop-color="#5D3FD2"/>
<stop offset="0.42" stop-color="#B829A9"/>
<stop offset="0.5" stop-color="#BE289D"/>
<stop offset="0.64" stop-color="#CF257E"/>
<stop offset="0.78" stop-color="#E62256"/>
<stop offset="0.81" stop-color="#E83055"/>
<stop offset="0.87" stop-color="#EE5754"/>
<stop offset="0.95" stop-color="#F89553"/>
<stop offset="1" stop-color="#FFC153"/>
</linearGradient>
<clipPath id="clip0_4280_25324">
<rect width="32" height="32.0022" fill="white"/>
</clipPath>
<clipPath id="clip1_4280_25324">
<rect width="18" height="19" fill="white" transform="translate(7 7)"/>
</clipPath>
</defs>
</svg>
