<svg width="32" height="32" viewBox="0 0 32 32" fill="none" xmlns="http://www.w3.org/2000/svg">
<g clip-path="url(#clip0_4280_25314)">
<path d="M16 32.0011C24.8366 32.0011 32 24.8377 32 16.0011C32 7.16454 24.8366 0.00109863 16 0.00109863C7.16344 0.00109863 0 7.16454 0 16.0011C0 24.8377 7.16344 32.0011 16 32.0011Z" fill="#EA0405"/>
<path d="M22.6807 10.3979H9.31364C7.99286 10.3979 6.92188 11.4689 6.92188 12.7889V21.1492C6.92188 22.47 7.99286 23.5402 9.31364 23.5402H22.6807C24.0007 23.5402 25.0717 22.47 25.0717 21.1492V12.7889C25.0717 11.4689 24.0007 10.3979 22.6807 10.3979ZM18.1438 17.5459L14.4266 19.4038C13.9973 19.6184 13.493 19.307 13.493 18.8277V15.112C13.493 14.6327 13.998 14.3213 14.4266 14.5351L18.1438 16.393C18.6184 16.6303 18.6184 17.3086 18.1438 17.5459Z" fill="#AA1119"/>
<path d="M22.6807 9.4292H9.31364C7.99286 9.4292 6.92188 10.5002 6.92188 11.8202V20.1804C6.92188 21.5012 7.99286 22.5714 9.31364 22.5714H22.6807C24.0007 22.5714 25.0717 21.5012 25.0717 20.1804V11.8202C25.0717 10.5002 24.0007 9.4292 22.6807 9.4292ZM18.1438 16.5772L14.4266 18.435C13.9973 18.6497 13.493 18.3382 13.493 17.8589V14.1433C13.493 13.664 13.998 13.3525 14.4266 13.5664L18.1438 15.4242C18.6184 15.6615 18.6184 16.3399 18.1438 16.5772Z" fill="white"/>
</g>
<defs>
<clipPath id="clip0_4280_25314">
<rect width="32" height="32" fill="white" transform="translate(0 0.00109863)"/>
</clipPath>
</defs>
</svg>
