<svg width="32" height="32" viewBox="0 0 32 32" fill="none" xmlns="http://www.w3.org/2000/svg">
<g clip-path="url(#clip0_4280_25337)">
<path d="M16 32.0011C24.8366 32.0011 32 24.8377 32 16.0011C32 7.16454 24.8366 0.00109863 16 0.00109863C7.16344 0.00109863 0 7.16454 0 16.0011C0 24.8377 7.16344 32.0011 16 32.0011Z" fill="#242F38"/>
<path d="M18.2344 15.5445L24.5081 8.83445V7.86572L22.1257 8.83445L17.2016 14.102L13.4305 8.83445L6.91406 7.86572V8.83445L13.5101 18.0487L6.91406 24.1358V25.1045H9.29646L14.5437 19.492L18.5614 25.1045H25.0779M10.2714 10.5596H12.543L21.7197 23.3778H19.4482L10.2714 10.5596Z" fill="black"/>
<path d="M18.2344 14.5758L24.5081 7.86572H22.1257L17.2016 13.1332L13.4305 7.86572H6.91406L13.5101 17.0799L6.91406 24.1358H9.29646L14.5437 18.5233L18.5614 24.1358H25.0779L18.2344 14.5766V14.5758ZM10.2714 9.59085H12.543L21.7197 22.4091H19.4482L10.2714 9.59163V9.59085Z" fill="white"/>
</g>
<defs>
<clipPath id="clip0_4280_25337">
<rect width="32" height="32" fill="white" transform="translate(0 0.00109863)"/>
</clipPath>
</defs>
</svg>
