<svg width="32" height="32" viewBox="0 0 32 32" fill="none" xmlns="http://www.w3.org/2000/svg">
<g clip-path="url(#clip0_4280_25319)">
<path d="M16 32.0011C24.8366 32.0011 32 24.8377 32 16.0011C32 7.16454 24.8366 0.00109863 16 0.00109863C7.16344 0.00109863 0 7.16454 0 16.0011C0 24.8377 7.16344 32.0011 16 32.0011Z" fill="#367CD9"/>
<path d="M12.8436 26.9474V18.4474H10.259C10.0217 18.4474 9.82812 18.2538 9.82812 18.0165V15.4187C9.82812 15.1806 10.0225 14.9862 10.2606 14.9862H12.8436V11.0926C12.8436 8.70315 14.7725 6.76648 17.1525 6.76648H20.168C20.4053 6.76648 20.5989 6.96007 20.5989 7.19737V9.79522C20.5989 10.0333 20.4045 10.2277 20.1664 10.2277H18.0135C17.062 10.2277 16.2907 11.002 16.2907 11.9583V14.987H19.9096C20.2593 14.987 20.6004 14.699 20.6004 14.699V15.6677C20.6004 15.6677 20.5989 15.7333 20.595 15.766L20.3366 17.8409C20.2929 18.1875 19.9994 18.4482 19.6512 18.4482H16.2907V26.9482C16.2907 27.2596 16.0386 27.5118 15.7271 27.5118H13.4072C13.0957 27.5118 12.8436 27.2596 12.8436 26.9482V26.9474Z" fill="#235891"/>
<path d="M12.8436 25.9795V17.4795H10.259C10.0217 17.4795 9.82812 17.2859 9.82812 17.0486V14.4508C9.82812 14.2127 10.0225 14.0183 10.2606 14.0183H12.8436V10.1247C12.8436 7.73526 14.7725 5.79858 17.1525 5.79858H20.168C20.4053 5.79858 20.5989 5.99217 20.5989 6.22948V8.82732C20.5989 9.0654 20.4045 9.25977 20.1664 9.25977H18.0135C17.062 9.25977 16.2907 10.0341 16.2907 10.9904V14.0191H19.9096C20.3249 14.0191 20.6457 14.3844 20.595 14.7981L20.3366 16.873C20.2929 17.2196 19.9994 17.4803 19.6512 17.4803H16.2907V25.9803C16.2907 26.2917 16.0386 26.5439 15.7271 26.5439H13.4072C13.0957 26.5439 12.8436 26.2917 12.8436 25.9803V25.9795Z" fill="white"/>
</g>
<defs>
<clipPath id="clip0_4280_25319">
<rect width="32" height="32" fill="white" transform="translate(0 0.00109863)"/>
</clipPath>
</defs>
</svg>
