<svg width="18" height="18" viewBox="0 0 18 18" fill="none" xmlns="http://www.w3.org/2000/svg">
<circle cx="9.36832" cy="9.00089" r="8.42105" fill="#007367"/>
<path d="M9.36832 9.70262C10.1435 9.70262 10.7718 8.91715 10.7718 7.94823C10.7718 6.97931 10.1435 6.19385 9.36832 6.19385C8.59319 6.19385 7.96481 6.97931 7.96481 7.94823C7.96481 8.91715 8.59319 9.70262 9.36832 9.70262Z" stroke="#F7E6CB" stroke-width="1.05263" stroke-linecap="round" stroke-linejoin="round"/>
<path d="M13.5789 8.13721C13.5789 11.7809 9.36833 14.6149 9.36833 14.6149C9.36833 14.6149 5.15781 11.7809 5.15781 8.13721C5.15781 7.06345 5.60141 6.03368 6.39104 5.27443C7.18067 4.51517 8.25163 4.08862 9.36833 4.08862C10.485 4.08862 11.556 4.51517 12.3456 5.27443C13.1353 6.03368 13.5789 7.06345 13.5789 8.13721Z" stroke="#F7E6CB" stroke-width="1.05263" stroke-linecap="round" stroke-linejoin="round"/>
</svg>
