<svg width="17" height="17" viewBox="0 0 17 17" fill="none" xmlns="http://www.w3.org/2000/svg">
<path d="M10.9165 9.6517C10.9901 9.60274 11.0747 9.57291 11.1627 9.56491C11.2507 9.55691 11.3394 9.57099 11.4205 9.60588L14.5523 11.009C14.6578 11.0542 14.7459 11.1322 14.8034 11.2316C14.8608 11.3309 14.8846 11.4462 14.871 11.5602C14.7678 12.3312 14.3882 13.0385 13.8026 13.5506C13.217 14.0626 12.4654 14.3446 11.6875 14.344C9.29227 14.344 6.99513 13.3925 5.30144 11.6988C3.60776 10.0051 2.65625 7.70795 2.65625 5.31271C2.65566 4.53483 2.9376 3.78321 3.44965 3.19763C3.96169 2.61205 4.66899 2.23237 5.44 2.1292C5.55398 2.11566 5.66927 2.13939 5.76863 2.19685C5.86799 2.25431 5.94606 2.34241 5.99117 2.44795L7.39434 5.58232C7.42881 5.66283 7.44285 5.75061 7.43521 5.83785C7.42756 5.92509 7.39846 6.00908 7.35051 6.08236L5.93141 7.76975C5.88107 7.8457 5.8513 7.93342 5.84502 8.02433C5.83873 8.11523 5.85614 8.20622 5.89555 8.28838C6.44473 9.41264 7.60684 10.5608 8.73442 11.1047C8.81701 11.1439 8.90841 11.1609 8.99959 11.1541C9.09078 11.1472 9.17859 11.1167 9.25438 11.0655L10.9165 9.6517Z" stroke="#F4E4C9" stroke-width="0.866667" stroke-linecap="round" stroke-linejoin="round"/>
</svg>
