<svg width="369" height="296" viewBox="0 0 369 296" fill="none" xmlns="http://www.w3.org/2000/svg">
<g opacity="0.4">
<mask id="path-1-inside-1_4429_22913" fill="white">
<path fill-rule="evenodd" clip-rule="evenodd" d="M123.001 0.366333C108.824 0.366333 97.3313 11.8589 97.3313 26.0358V29.3131C96.9878 31.6085 96.3604 33.8587 95.4595 36.0123C94.0196 39.4542 91.909 42.5816 89.2483 45.2159C86.5877 47.8502 83.429 49.9399 79.9527 51.3655C78.9036 51.7958 77.8318 52.163 76.743 52.4661H25.6695C11.4926 52.4661 0 63.9587 0 78.1356V269.501C0 283.678 11.4926 295.17 25.6695 295.17H249.035C263.211 295.17 274.704 283.678 274.704 269.501V267.095C275.574 261.588 278.07 256.42 281.927 252.27C286.144 247.732 291.72 244.697 297.794 243.583H343.331C357.508 243.583 369 232.091 369 217.914V26.0359C369 11.859 357.508 0.366333 343.331 0.366333H123.001Z"/>
</mask>
<path fill-rule="evenodd" clip-rule="evenodd" d="M123.001 0.366333C108.824 0.366333 97.3313 11.8589 97.3313 26.0358V29.3131C96.9878 31.6085 96.3604 33.8587 95.4595 36.0123C94.0196 39.4542 91.909 42.5816 89.2483 45.2159C86.5877 47.8502 83.429 49.9399 79.9527 51.3655C78.9036 51.7958 77.8318 52.163 76.743 52.4661H25.6695C11.4926 52.4661 0 63.9587 0 78.1356V269.501C0 283.678 11.4926 295.17 25.6695 295.17H249.035C263.211 295.17 274.704 283.678 274.704 269.501V267.095C275.574 261.588 278.07 256.42 281.927 252.27C286.144 247.732 291.72 244.697 297.794 243.583H343.331C357.508 243.583 369 232.091 369 217.914V26.0359C369 11.859 357.508 0.366333 343.331 0.366333H123.001Z" fill="#8BCBB7"/>
<path d="M97.3313 29.3131L98.389 29.4714L98.4008 29.3927V29.3131H97.3313ZM95.4595 36.0123L94.4728 35.5995L95.4595 36.0123ZM89.2483 45.2159L90.0009 45.9759V45.9759L89.2483 45.2159ZM79.9527 51.3655L80.3585 52.3551V52.3551L79.9527 51.3655ZM76.743 52.4661V53.5357H76.8891L77.0299 53.4965L76.743 52.4661ZM274.704 267.095L273.648 266.928L273.635 267.011V267.095H274.704ZM281.927 252.27L282.71 252.998L281.927 252.27ZM297.794 243.583V242.514H297.697L297.601 242.531L297.794 243.583ZM98.4008 26.0358C98.4008 12.4497 109.415 1.4359 123.001 1.4359V-0.703231C108.233 -0.703231 96.2617 11.2682 96.2617 26.0358H98.4008ZM98.4008 29.3131V26.0358H96.2617V29.3131H98.4008ZM96.4462 36.425C97.3813 34.1899 98.0325 31.8541 98.389 29.4714L96.2735 29.1549C95.9431 31.3629 95.3396 33.5276 94.4728 35.5995L96.4462 36.425ZM90.0009 45.9759C92.7614 43.2428 94.9517 39.9975 96.4462 36.425L94.4728 35.5995C93.0875 38.9108 91.0567 41.9203 88.4958 44.4558L90.0009 45.9759ZM80.3585 52.3551C83.9638 50.8765 87.2404 48.7091 90.0009 45.9759L88.4958 44.4558C85.9349 46.9913 82.8942 49.0032 79.5468 50.376L80.3585 52.3551ZM77.0299 53.4965C78.1589 53.1822 79.2705 52.8013 80.3585 52.3551L79.5468 50.376C78.5367 50.7902 77.5046 51.1439 76.4562 51.4357L77.0299 53.4965ZM25.6695 53.5357H76.743V51.3965H25.6695V53.5357ZM1.06956 78.1356C1.06956 64.5494 12.0833 53.5357 25.6695 53.5357V51.3965C10.9019 51.3965 -1.06956 63.368 -1.06956 78.1356H1.06956ZM1.06956 269.501V78.1356H-1.06956V269.501H1.06956ZM25.6695 294.101C12.0833 294.101 1.06956 283.087 1.06956 269.501H-1.06956C-1.06956 284.268 10.9019 296.24 25.6695 296.24V294.101ZM249.035 294.101H25.6695V296.24H249.035V294.101ZM273.635 269.501C273.635 283.087 262.621 294.101 249.035 294.101V296.24C263.802 296.24 275.774 284.268 275.774 269.501H273.635ZM273.635 267.095V269.501H275.774V267.095H273.635ZM281.143 251.542C277.142 255.848 274.551 261.211 273.648 266.928L275.761 267.262C276.597 261.964 278.999 256.992 282.71 252.998L281.143 251.542ZM297.601 242.531C291.303 243.686 285.519 246.834 281.143 251.542L282.71 252.998C286.769 248.631 292.138 245.708 297.987 244.635L297.601 242.531ZM343.331 242.514H297.794V244.653H343.331V242.514ZM367.931 217.914C367.931 231.5 356.917 242.514 343.331 242.514V244.653C358.099 244.653 370.07 232.682 370.07 217.914H367.931ZM367.931 26.0359V217.914H370.07V26.0359H367.931ZM343.331 1.4359C356.917 1.4359 367.931 12.4497 367.931 26.0359H370.07C370.07 11.2683 358.099 -0.703231 343.331 -0.703231V1.4359ZM123.001 1.4359H343.331V-0.703231H123.001V1.4359Z" fill="#007367" mask="url(#path-1-inside-1_4429_22913)"/>
</g>
</svg>
