<svg width="20" height="20" viewBox="0 0 20 20" fill="none" xmlns="http://www.w3.org/2000/svg">
<path fill-rule="evenodd" clip-rule="evenodd" d="M8.33333 2.625C5.11167 2.625 2.5 5.23667 2.5 8.45833C2.5 11.68 5.11167 14.2917 8.33333 14.2917C9.64361 14.2917 10.853 13.8597 11.8268 13.1303L15.2441 16.5477C15.5696 16.8731 16.0972 16.8731 16.4227 16.5477C16.7481 16.2222 16.7481 15.6946 16.4227 15.3691L13.0053 11.9518C13.7347 10.978 14.1667 9.76861 14.1667 8.45833C14.1667 5.23667 11.555 2.625 8.33333 2.625ZM4.16667 8.45833C4.16667 6.15715 6.03215 4.29167 8.33333 4.29167C10.6345 4.29167 12.5 6.15715 12.5 8.45833C12.5 10.7595 10.6345 12.625 8.33333 12.625C6.03215 12.625 4.16667 10.7595 4.16667 8.45833Z" fill="#007367"/>
</svg>
