<svg width="61" height="61" viewBox="0 0 61 61" fill="none" xmlns="http://www.w3.org/2000/svg">
<path d="M38.1389 30.6688L26.8719 23.1575V38.1801L38.1389 30.6688Z" stroke="#FF0000" stroke-width="5.00754" stroke-linecap="round" stroke-linejoin="round"/>
<path d="M6.21588 30.6686C6.21588 37.6893 6.9365 41.8065 7.48576 43.9237C7.63101 44.4996 7.91077 45.0329 8.30208 45.4797C8.69339 45.9265 9.18509 46.2741 9.7368 46.494C17.6049 49.529 30.6276 49.4469 30.6276 49.4469C30.6276 49.4469 43.6503 49.529 51.5184 46.494C52.0719 46.2753 52.5655 45.9282 52.9585 45.4813C53.3515 45.0345 53.6327 44.5006 53.7789 43.9237C54.3281 41.8112 55.0487 37.6893 55.0487 30.6686C55.0487 23.6479 54.3281 19.5308 53.7789 17.4135C53.6343 16.8345 53.3539 16.2983 52.9608 15.8492C52.5677 15.4002 52.0733 15.0513 51.5184 14.8315C43.6503 11.8082 30.6276 11.8904 30.6276 11.8904C30.6276 11.8904 17.6049 11.8082 9.7368 14.8432C9.18198 15.0631 8.68754 15.4119 8.29444 15.861C7.90134 16.31 7.6209 16.8462 7.47637 17.4252C6.9365 19.5284 6.21588 23.6479 6.21588 30.6686Z" stroke="#FF0000" stroke-width="5.00754" stroke-linecap="round" stroke-linejoin="round"/>
</svg>
